<?xml version="1.0" standalone="no"?>
<!DOCTYPE svg PUBLIC "-//W3C//DTD SVG 20010904//EN"
 "http://www.w3.org/TR/2001/REC-SVG-20010904/DTD/svg10.dtd">
<svg version="1.0" xmlns="http://www.w3.org/2000/svg"
 width="1024.000000pt" height="1024.000000pt" viewBox="0 0 1024.000000 1024.000000"
 preserveAspectRatio="xMidYMid meet">
<metadata>
Created by potrace 1.14, written by Peter Selinger 2001-2017
</metadata>
<g transform="translate(0.000000,1024.000000) scale(0.100000,-0.100000)"
fill="#000000" stroke="none">
<path d="M3899 9105 c-3 -2 -35 -5 -72 -6 -37 -1 -67 -6 -67 -10 0 -5 -6 -6
-14 -3 -8 3 -17 0 -21 -5 -3 -6 -10 -9 -15 -6 -4 3 -7 -3 -6 -13 0 -9 -5 -16
-12 -14 -8 1 -11 -2 -7 -8 3 -5 0 -10 -8 -10 -8 0 -22 -9 -32 -20 -12 -13 -22
-17 -28 -11 -10 10 -45 -4 -59 -24 -5 -6 -8 -4 -8 4 0 17 -15 5 -15 -12 0 -7
-8 -11 -18 -11 -9 1 -17 -4 -17 -12 0 -8 -6 -11 -15 -7 -9 3 -22 -2 -31 -13
-14 -18 -14 -18 -8 1 4 15 2 14 -9 -4 -8 -14 -22 -26 -32 -27 -10 -1 -23 -8
-29 -15 -8 -9 -8 -10 1 -5 6 3 15 2 18 -4 4 -6 3 -9 -2 -8 -17 4 -51 -13 -58
-29 -5 -14 -2 -14 17 3 l23 19 -18 -22 c-11 -12 -24 -19 -31 -17 -7 3 -19 -2
-26 -11 -7 -8 -9 -15 -6 -15 4 0 2 -9 -4 -20 -7 -12 -16 -18 -23 -13 -9 5 -9
3 -1 -8 9 -11 9 -17 -1 -26 -7 -6 -17 -9 -21 -5 -5 4 -2 -1 5 -10 10 -13 10
-18 1 -18 -6 0 -10 -6 -7 -12 6 -19 -12 -50 -25 -42 -7 4 -8 3 -4 -5 4 -6 12
-9 17 -5 6 3 3 -10 -5 -29 -10 -25 -11 -38 -3 -46 8 -8 8 -11 0 -11 -8 0 -7
-15 2 -50 10 -36 10 -48 2 -44 -7 3 -3 -2 8 -11 11 -9 19 -23 17 -31 -2 -9 5
-23 15 -31 10 -8 12 -12 6 -8 -7 3 -13 1 -13 -4 0 -6 6 -11 14 -11 8 0 17 -7
20 -16 6 -15 4 -15 -11 -3 -13 11 -15 11 -9 1 4 -7 19 -18 33 -23 20 -7 24
-14 20 -32 -6 -22 -6 -22 10 -2 15 20 15 19 8 -4 -5 -18 -4 -22 5 -16 9 6 11
4 6 -4 -5 -7 0 -18 10 -26 13 -10 15 -14 5 -15 -10 0 -11 -3 -2 -13 6 -8 9
-23 6 -35 -2 -12 0 -22 5 -22 4 0 11 -7 14 -16 4 -10 2 -13 -7 -8 -7 5 -5 0 3
-11 12 -15 12 -19 2 -23 -10 -3 -9 -9 4 -23 16 -18 16 -19 1 -13 -12 4 -17 1
-17 -10 0 -9 -7 -16 -15 -16 -9 0 -18 -7 -21 -15 -4 -8 -11 -12 -17 -8 -6 3
-7 1 -3 -6 4 -6 13 -9 19 -5 7 3 4 -1 -5 -9 -10 -8 -15 -17 -11 -20 3 -4 -1
-7 -10 -7 -9 0 -19 -5 -23 -12 -4 -7 -3 -8 4 -4 8 5 10 2 6 -8 -3 -9 -11 -14
-17 -13 -7 1 -11 -6 -11 -15 1 -10 -4 -18 -11 -18 -7 0 -16 -7 -19 -16 -3 -8
-11 -12 -17 -8 -7 4 -6 -2 2 -17 12 -23 11 -23 -6 -9 -10 8 -16 10 -12 4 7
-12 -26 -57 -36 -48 -3 3 -4 -6 -3 -20 2 -14 -2 -24 -8 -23 -6 1 -12 -8 -14
-21 -2 -12 -7 -20 -11 -18 -4 3 -8 -7 -9 -22 -1 -15 -7 -28 -12 -30 -6 -2 -6
-11 1 -24 8 -16 8 -19 -1 -13 -9 6 -9 2 -1 -14 7 -12 9 -26 6 -31 -3 -6 1 -7
9 -4 9 3 16 2 16 -3 0 -4 12 -21 27 -38 18 -19 21 -27 10 -22 -13 5 -16 2 -14
-13 2 -11 6 -23 10 -26 4 -4 2 -13 -4 -21 -9 -10 -8 -13 0 -13 7 0 10 -4 7 -8
-3 -5 1 -20 9 -35 7 -14 10 -29 7 -33 -4 -5 2 -2 12 6 18 14 19 13 13 -2 -6
-18 15 -43 27 -31 4 4 4 -1 0 -11 -5 -14 -4 -17 4 -12 7 4 12 3 12 -1 0 -5 7
-18 16 -29 14 -18 15 -18 4 6 -11 24 -10 24 4 6 9 -11 16 -24 16 -29 0 -4 4
-6 9 -2 5 3 13 0 17 -6 4 -7 3 -9 -4 -5 -6 3 -14 2 -17 -4 -4 -6 -3 -10 2 -9
20 3 34 -2 28 -11 -4 -6 1 -7 11 -3 13 5 16 2 12 -9 -6 -14 29 -40 57 -42 6
-1 9 -11 7 -23 -2 -14 4 -23 18 -28 11 -3 18 -11 15 -16 -3 -5 1 -6 9 -3 16 6
23 -10 9 -19 -5 -2 -2 -2 5 -1 7 2 15 -3 18 -11 4 -8 11 -12 17 -8 6 4 8 0 4
-10 -4 -10 -1 -17 5 -17 6 0 9 -3 6 -6 -4 -3 -2 -19 2 -35 8 -26 6 -29 -13
-29 -22 -1 -22 -1 2 -14 22 -12 22 -14 5 -21 -11 -5 -23 -7 -27 -6 -4 1 -3 -8
3 -19 8 -16 8 -20 -2 -18 -7 2 -13 -4 -13 -12 0 -8 -8 -18 -18 -22 -14 -6 -16
-12 -7 -27 9 -17 7 -19 -10 -16 -17 3 -20 0 -15 -15 4 -14 2 -20 -8 -20 -8 0
-14 -8 -13 -17 0 -11 -5 -17 -13 -15 -12 3 -12 0 -1 -12 8 -11 9 -16 1 -16 -6
0 -11 -7 -11 -15 0 -8 -5 -15 -11 -15 -5 0 -7 6 -3 13 4 6 3 8 -1 4 -14 -12
-15 -38 -2 -30 7 3 -1 -7 -18 -23 -16 -16 -34 -27 -38 -26 -4 1 -3 -7 3 -19
11 -19 10 -20 -10 -9 -20 11 -21 10 -11 -9 10 -17 8 -19 -8 -16 -14 2 -18 -1
-14 -11 3 -7 -2 -17 -11 -20 -9 -3 -16 -10 -16 -16 0 -5 6 -6 13 -2 8 5 8 2
-2 -9 -15 -19 -26 -23 -15 -5 4 7 3 8 -4 4 -7 -4 -12 -11 -12 -16 0 -5 -11
-21 -25 -36 -14 -15 -23 -34 -21 -41 5 -11 1 -11 -17 -2 -20 11 -21 11 -8 -5
12 -15 12 -17 0 -14 -8 2 -13 -3 -11 -10 1 -8 -2 -11 -8 -7 -5 3 -10 1 -10 -5
0 -6 -5 -8 -12 -4 -9 5 -9 2 1 -9 7 -9 9 -17 4 -17 -5 0 -18 -7 -29 -16 -10
-8 -14 -13 -7 -10 6 4 15 2 18 -4 4 -6 3 -10 -2 -9 -21 4 -34 -2 -27 -13 5 -7
2 -9 -9 -5 -11 4 -14 2 -10 -8 3 -8 -2 -18 -11 -21 -9 -3 -13 -10 -10 -15 3
-5 0 -9 -7 -9 -8 0 -8 -4 1 -15 7 -8 16 -13 20 -10 5 3 7 -3 6 -12 -3 -22 -47
-46 -60 -33 -5 5 -16 5 -28 -1 -13 -7 -18 -6 -19 3 0 7 -4 3 -9 -9 -6 -15 -16
-21 -29 -18 -15 3 -18 0 -14 -12 5 -13 2 -15 -15 -11 -12 4 -20 2 -16 -3 5 -8
-10 -13 -29 -10 -4 1 -3 -8 4 -20 8 -15 8 -19 0 -15 -6 4 -14 0 -17 -8 -3 -9
-12 -16 -19 -16 -7 0 -12 -8 -11 -17 0 -10 -4 -17 -11 -16 -8 2 -10 -4 -6 -14
5 -12 3 -14 -7 -8 -10 6 -12 4 -7 -8 3 -10 2 -17 -4 -17 -6 0 -8 -4 -5 -9 8
-12 -4 -42 -13 -36 -4 2 -8 -2 -8 -10 0 -8 5 -11 11 -8 6 4 5 0 -2 -9 -20 -25
-13 -178 8 -178 13 0 13 -1 0 -10 -8 -5 -10 -10 -5 -10 6 0 19 -12 29 -27 11
-14 14 -23 8 -19 -7 4 -12 2 -12 -3 0 -6 9 -11 20 -11 18 0 19 -3 9 -21 -8
-15 -8 -19 0 -15 7 4 11 -1 11 -13 0 -22 -19 -38 -29 -25 -6 9 -19 13 -61 21
-59 10 -65 11 -67 13 -2 2 -7 4 -13 5 -5 1 -13 4 -17 5 -5 1 -11 2 -15 1 -5 0
-8 3 -8 8 0 5 -9 7 -20 4 -11 -3 -20 -1 -20 4 0 5 -6 10 -12 11 -16 1 -53 10
-53 12 0 1 -13 3 -29 4 -16 1 -31 7 -34 14 -3 9 -8 10 -17 2 -9 -8 -17 -7 -28
5 -12 11 -17 12 -20 2 -3 -6 -6 -3 -6 8 -1 17 -3 17 -11 5 -8 -12 -10 -12 -10
5 0 17 -2 17 -10 5 -7 -11 -10 -11 -10 -2 0 7 -4 10 -10 7 -5 -3 -10 -2 -10 3
0 6 -8 8 -18 5 -10 -2 -24 3 -31 11 -8 9 -18 16 -24 16 -6 0 -2 -7 9 -16 16
-13 14 -13 -9 1 -16 9 -34 14 -41 12 -7 -3 -20 3 -29 14 -9 10 -23 16 -31 13
-8 -3 -17 0 -21 6 -6 9 -10 9 -16 -1 -7 -11 -9 -11 -9 -1 0 7 -4 10 -10 7 -5
-3 -10 -1 -10 4 0 6 -5 11 -11 11 -5 0 -7 -6 -4 -12 4 -7 0 -5 -8 5 -9 11 -18
14 -21 8 -4 -6 -13 -8 -20 -5 -8 3 -16 -2 -19 -13 -4 -17 -5 -17 -6 0 -1 15
-3 16 -15 5 -8 -7 -11 -17 -8 -23 3 -5 -2 -4 -11 4 -11 8 -17 9 -17 3 0 -6 -9
-16 -20 -22 -16 -9 -19 -8 -14 7 2 10 -1 8 -7 -5 -8 -14 -18 -21 -27 -17 -12
4 -12 3 -3 -9 10 -12 9 -14 -6 -12 -19 3 -44 -15 -36 -26 8 -14 -5 -8 -23 10
-17 16 -18 16 -11 -1 5 -14 2 -20 -13 -24 -11 -3 -17 -9 -14 -14 3 -5 1 -9 -5
-9 -5 0 -12 6 -14 13 -3 6 -6 2 -6 -10 -1 -17 -5 -21 -18 -16 -12 5 -14 3 -8
-7 6 -9 4 -11 -5 -5 -8 5 -20 -1 -32 -16 -11 -13 -17 -19 -14 -12 7 13 -19 12
-31 -2 -4 -4 -2 -5 5 -1 6 4 12 2 12 -3 0 -6 -7 -11 -15 -11 -8 0 -15 -5 -15
-11 0 -8 -6 -7 -17 2 -13 11 -15 11 -9 1 5 -9 1 -15 -14 -19 -11 -3 -19 -11
-17 -18 3 -6 -1 -12 -8 -12 -7 0 -11 7 -8 16 2 9 -4 1 -14 -16 -17 -29 -19
-31 -30 -15 -11 16 -12 16 -12 -1 -1 -10 -5 -15 -11 -12 -9 6 -14 -8 -11 -28
1 -5 -3 -6 -9 -2 -6 3 -8 12 -4 18 3 7 -3 1 -14 -12 -13 -16 -24 -21 -33 -16
-11 7 -11 5 1 -11 8 -10 10 -16 6 -12 -5 4 -15 3 -23 -4 -11 -9 -12 -7 -7 8 3
10 -3 6 -15 -11 -11 -16 -25 -31 -31 -31 -5 -1 -15 -2 -21 -3 -8 -1 -8 -5 0
-14 8 -11 6 -13 -12 -13 -14 1 -21 -4 -19 -13 2 -11 0 -12 -10 -4 -10 9 -13 4
-14 -20 -1 -18 1 -26 3 -20 3 10 9 9 20 -3 13 -13 18 -13 25 -2 7 9 8 8 4 -5
-3 -10 -6 -23 -6 -28 0 -4 -7 -6 -15 -3 -8 4 -15 1 -15 -5 0 -6 -9 -11 -21
-11 -11 0 -18 -3 -16 -7 3 -5 -1 -13 -8 -20 -10 -10 -16 -9 -26 3 -10 12 -14
12 -20 2 -6 -9 -9 -9 -9 -1 0 6 -9 10 -20 8 -11 -2 -19 -1 -17 3 1 4 -2 8 -7
9 -5 1 -13 7 -17 15 -6 9 -9 10 -9 1 0 -16 -49 3 -68 26 -10 12 -12 12 -12 1
0 -9 -5 -8 -16 6 -8 10 -12 12 -8 4 7 -13 5 -13 -9 -2 -9 8 -21 11 -27 7 -5
-3 -10 -1 -10 5 0 7 -6 10 -12 7 -7 -2 -19 5 -26 17 -9 14 -12 16 -8 4 3 -10
1 -18 -4 -18 -6 0 -10 5 -10 11 0 5 -4 8 -9 4 -5 -3 -13 0 -16 6 -4 5 -13 8
-21 5 -8 -3 -14 0 -14 6 0 6 -3 8 -6 5 -4 -3 -15 -2 -25 4 -15 8 -19 6 -19 -8
0 -12 -3 -14 -8 -6 -4 7 -12 9 -18 5 -15 -10 -25 -42 -13 -42 6 0 7 -4 4 -10
-9 -14 9 -12 24 3 10 10 11 8 5 -7 -5 -13 -4 -17 4 -12 7 4 12 2 12 -4 0 -6 5
-8 12 -4 8 5 9 1 5 -12 -7 -18 -7 -18 8 0 8 11 15 14 15 7 0 -7 5 -9 12 -5 7
5 9 2 5 -9 -4 -11 -2 -14 9 -10 8 3 23 -4 33 -16 10 -11 23 -21 30 -21 6 0 11
-10 12 -22 0 -22 1 -22 9 -3 5 12 9 14 9 6 1 -8 4 -12 7 -8 4 3 13 -1 21 -9 8
-8 19 -11 25 -8 7 4 8 2 4 -4 -4 -7 -1 -12 8 -12 9 0 16 -7 16 -15 0 -8 6 -12
14 -9 8 3 19 -3 26 -16 6 -11 19 -19 28 -18 11 2 17 -3 16 -14 -1 -9 4 -14 11
-12 6 3 18 -3 26 -13 13 -17 13 -17 -6 -3 -19 14 -19 14 -6 -3 8 -10 22 -16
33 -14 10 3 18 1 18 -4 0 -6 10 -20 21 -32 12 -12 18 -15 14 -7 -5 8 3 3 18
-12 14 -16 33 -28 41 -28 8 0 23 -10 33 -23 10 -13 25 -27 33 -32 13 -8 13 -7
0 11 -14 18 -14 18 3 5 19 -15 24 -47 5 -35 -7 4 -8 3 -4 -5 6 -9 11 -9 22 0
11 9 14 9 14 -1 0 -7 7 -10 16 -6 11 4 18 -3 26 -25 8 -23 15 -29 29 -26 11 3
17 1 14 -3 -3 -5 -1 -11 5 -15 6 -4 7 -12 3 -18 -4 -7 2 -5 13 3 10 8 16 10
12 6 -11 -13 11 -36 33 -36 11 0 19 -5 19 -11 0 -5 -6 -7 -12 -3 -7 4 -4 -2 6
-14 20 -23 32 -30 21 -12 -3 6 -2 10 4 10 6 0 15 -9 21 -20 8 -15 17 -19 33
-15 16 5 18 4 8 -3 -11 -8 -10 -13 7 -30 11 -11 17 -24 14 -28 -4 -4 -1 -4 7
1 12 7 11 10 -2 20 -10 7 -17 16 -17 20 0 5 11 -2 25 -15 13 -12 22 -27 19
-31 -5 -9 0 -11 28 -13 18 -1 48 -33 48 -50 0 -7 7 -20 17 -27 15 -13 15 -12
4 9 -19 35 -6 26 28 -20 24 -32 31 -37 32 -22 0 12 5 7 14 -16 7 -19 14 -29
14 -22 1 20 22 14 28 -8 3 -11 11 -20 19 -20 7 0 18 -9 24 -20 6 -11 15 -20
20 -20 10 0 29 -16 77 -62 12 -12 20 -25 17 -30 -3 -4 2 -5 11 -1 14 5 14 8 3
15 -10 8 -10 9 2 5 8 -2 14 -12 14 -21 -1 -9 8 -19 23 -22 16 -4 22 -11 19
-21 -3 -8 -2 -12 2 -10 4 3 13 -1 20 -9 10 -10 10 -14 1 -14 -7 0 -9 -3 -6 -6
4 -4 14 -1 24 7 10 8 14 9 10 2 -7 -12 25 -37 35 -28 3 3 5 -2 5 -10 0 -16
-24 -28 -38 -19 -5 3 -9 1 -9 -5 0 -7 -8 -7 -23 -2 -14 5 -30 5 -40 0 -12 -7
-17 -6 -17 2 0 8 -4 8 -12 1 -7 -5 -22 -6 -33 -2 -21 8 -48 2 -41 -9 2 -3 -10
-6 -27 -7 -18 -1 -44 -4 -59 -7 -16 -3 -28 -2 -28 2 0 4 -7 8 -15 8 -8 0 -12
-4 -9 -9 3 -4 -4 -8 -15 -8 -11 0 -23 -5 -26 -10 -5 -8 -11 -8 -20 0 -10 8
-15 8 -20 0 -5 -8 -10 -8 -20 0 -10 8 -15 8 -20 0 -4 -6 -13 -9 -20 -6 -7 2
-21 -1 -31 -9 -13 -9 -24 -10 -36 -4 -10 5 -18 6 -18 1 0 -8 -11 -10 -72 -14
-20 -2 -34 -7 -31 -12 3 -5 -6 -7 -20 -4 -15 3 -24 1 -21 -3 2 -4 -5 -13 -16
-19 -11 -6 -20 -8 -20 -4 0 3 -12 -1 -26 -11 -15 -9 -24 -13 -21 -8 4 5 0 10
-8 10 -8 0 -13 -2 -11 -5 8 -8 -29 -42 -45 -42 -9 0 -20 -7 -23 -16 -6 -15 -4
-15 11 -3 16 13 17 12 5 -3 -8 -9 -19 -15 -27 -12 -7 3 -16 0 -21 -7 -5 -8 -3
-10 7 -4 11 7 12 6 2 -7 -7 -8 -9 -19 -5 -24 4 -4 -2 -2 -12 6 -11 8 -17 10
-14 5 4 -6 3 -17 -3 -25 -6 -10 -9 -11 -9 -2 0 6 -5 12 -10 12 -7 0 -6 -8 1
-22 12 -22 11 -22 -6 -8 -10 8 -16 10 -12 3 10 -16 -3 -44 -16 -36 -7 4 -8 0
-4 -11 4 -9 0 -31 -9 -48 -9 -16 -11 -27 -6 -24 6 4 8 -2 5 -14 -3 -11 -10
-20 -15 -20 -6 0 -8 -7 -4 -15 3 -8 1 -15 -4 -15 -5 0 -7 -6 -4 -14 3 -8 1
-17 -5 -20 -6 -4 -6 -18 -1 -36 5 -17 6 -30 2 -30 -4 0 -7 -16 -7 -35 0 -19 4
-35 9 -35 4 0 5 -7 2 -16 -4 -9 -1 -24 6 -32 10 -12 10 -14 1 -8 -9 5 -11 2
-7 -8 3 -9 10 -16 15 -16 6 0 5 -8 -1 -19 -7 -13 -7 -22 0 -26 5 -3 10 -17 10
-30 0 -13 4 -25 9 -27 6 -1 11 -14 13 -28 2 -14 7 -31 11 -38 5 -7 3 -12 -4
-12 -7 0 -4 -7 7 -16 10 -8 14 -13 7 -10 -7 4 -6 -4 3 -24 9 -16 21 -30 27
-30 7 0 6 -4 -3 -10 -11 -7 -11 -10 -2 -10 8 0 10 -5 6 -12 -4 -7 -4 -10 1 -6
11 11 45 -10 45 -28 0 -9 7 -22 15 -30 8 -9 15 -12 15 -7 0 4 7 -3 16 -15 9
-13 14 -26 10 -29 -7 -7 19 -33 33 -33 6 0 11 -5 11 -11 0 -5 -4 -8 -9 -4 -5
3 -13 0 -17 -6 -4 -7 -3 -9 3 -6 10 6 43 -26 43 -43 0 -6 10 -10 23 -11 21 0
21 -1 2 -9 -18 -8 -18 -9 5 -9 20 -1 22 -3 10 -12 -12 -8 -10 -9 10 -7 20 2
25 -1 24 -19 -1 -14 6 -25 19 -29 16 -5 17 -8 6 -15 -9 -6 -10 -9 -2 -9 7 0
17 8 23 18 8 13 9 11 4 -12 -5 -21 -4 -27 5 -22 6 4 11 1 11 -8 0 -8 9 -18 20
-21 11 -4 18 -11 14 -16 -3 -5 -2 -9 3 -8 21 4 32 -3 38 -21 4 -11 11 -18 16
-15 5 4 9 -1 9 -10 0 -9 4 -13 10 -10 5 3 10 1 10 -5 0 -6 5 -8 10 -5 6 3 10
1 10 -5 0 -6 5 -8 12 -4 8 5 9 2 5 -10 -4 -10 -3 -15 3 -11 6 3 13 -1 16 -9 3
-9 10 -13 15 -10 5 3 6 -1 3 -9 -3 -8 2 -17 10 -20 11 -4 13 -1 9 11 -3 9 3 5
13 -9 11 -14 25 -24 32 -22 8 3 10 -1 5 -13 -4 -12 -3 -15 5 -10 7 4 12 1 12
-9 0 -9 5 -13 10 -10 6 4 7 11 4 17 -5 7 -2 8 5 4 7 -5 10 -10 7 -13 -9 -9 32
-45 43 -38 6 3 11 1 11 -6 0 -7 3 -10 6 -6 6 6 17 -2 58 -39 14 -13 32 -20 50
-18 27 3 27 2 10 -12 -11 -9 -14 -13 -7 -10 6 4 14 0 16 -6 4 -9 6 -9 6 2 1
10 6 7 17 -9 11 -15 23 -21 35 -18 11 3 22 0 26 -5 4 -7 1 -8 -8 -3 -11 7 -11
5 1 -9 9 -12 16 -14 18 -6 3 7 10 3 19 -9 17 -25 59 -51 48 -29 -3 7 0 5 8 -4
8 -10 24 -18 36 -18 12 0 19 -4 16 -10 -3 -6 -1 -10 6 -10 7 0 21 -8 32 -18
11 -9 17 -11 13 -5 -4 7 -3 13 2 13 15 0 33 -26 24 -35 -4 -5 -2 -5 5 -1 14 8
64 -14 57 -25 -3 -5 2 -9 11 -9 9 0 13 -4 10 -10 -3 -5 1 -10 10 -10 10 0 13
5 9 12 -4 7 -3 8 5 4 6 -4 9 -11 6 -16 -3 -4 2 -13 10 -20 11 -9 15 -9 15 -1
0 7 10 3 22 -9 16 -15 24 -17 30 -8 4 7 8 10 9 6 1 -5 3 -12 4 -18 1 -5 3 -13
4 -17 1 -5 6 -1 11 7 8 13 10 12 10 -4 0 -13 5 -17 19 -13 14 3 18 1 14 -9 -3
-8 -1 -14 5 -14 6 0 13 6 15 13 4 8 6 6 6 -4 1 -9 9 -23 19 -32 15 -13 21 -14
32 -4 10 9 11 9 6 0 -7 -12 5 -18 27 -14 4 1 7 -6 5 -15 -2 -9 4 -19 12 -21
13 -4 13 -3 0 6 -10 7 -11 11 -3 11 15 0 32 -31 26 -48 -3 -6 -10 -9 -16 -5
-17 11 -38 13 -32 3 3 -4 -2 -11 -11 -14 -9 -4 -13 -2 -8 5 4 8 0 7 -15 0 -12
-7 -26 -9 -31 -6 -5 3 -11 1 -14 -4 -3 -5 -21 -6 -40 -1 -19 4 -37 5 -40 2 -3
-2 -17 -6 -31 -8 -14 -1 -32 -7 -39 -13 -7 -6 -22 -9 -34 -6 -16 3 -19 0 -15
-12 5 -12 1 -14 -18 -9 -13 3 -19 3 -12 0 10 -4 10 -8 0 -19 -7 -7 -16 -11
-20 -8 -5 3 -4 -4 2 -14 6 -11 7 -23 4 -27 -4 -3 2 -13 13 -22 19 -15 19 -16
-1 -9 -16 5 -17 4 -8 -6 7 -7 23 -14 35 -16 12 -2 25 -7 28 -12 3 -4 12 -12
21 -17 13 -8 13 -11 -3 -26 -15 -16 -18 -16 -18 -2 0 8 -5 12 -10 9 -6 -4 -7
-11 -4 -17 4 -6 1 -9 -7 -6 -8 3 -24 1 -36 -3 -13 -5 -23 -5 -23 0 0 4 -7 8
-15 8 -8 0 -15 -6 -15 -13 0 -7 -5 -16 -12 -20 -6 -4 -8 -3 -4 4 3 6 2 13 -4
17 -5 3 -10 1 -10 -5 0 -7 -6 -10 -14 -7 -7 3 -22 0 -32 -7 -11 -7 -34 -12
-51 -11 -18 1 -33 -3 -33 -8 0 -5 -6 -4 -14 2 -10 8 -16 9 -21 1 -4 -7 -12 -7
-26 0 -14 8 -19 7 -19 -1 0 -9 -3 -9 -14 0 -10 8 -16 9 -21 1 -4 -7 -12 -7
-26 0 -13 8 -19 7 -19 0 0 -8 -6 -8 -20 0 -15 8 -20 8 -20 -1 0 -8 -4 -8 -13
-1 -8 7 -18 7 -27 2 -9 -5 -19 -5 -27 2 -9 7 -13 7 -13 0 0 -7 -7 -9 -17 -5
-12 5 -14 3 -8 -8 8 -12 6 -12 -8 0 -13 10 -17 10 -17 1 0 -7 -8 -10 -20 -7
-11 3 -18 1 -14 -4 3 -5 -3 -10 -13 -10 -10 -1 -29 -4 -43 -6 -14 -2 -35 -4
-47 -5 -14 0 -20 -4 -16 -11 4 -6 0 -8 -10 -4 -10 3 -17 2 -17 -4 0 -6 -7 -6
-20 1 -14 8 -20 8 -20 0 0 -8 -6 -8 -20 0 -14 8 -20 8 -20 0 0 -7 -6 -8 -18
-1 -11 6 -24 6 -35 0 -9 -6 -17 -6 -17 -1 0 9 -53 8 -70 -3 -6 -4 -18 -1 -26
6 -12 10 -16 9 -21 -10 -4 -17 -8 -19 -19 -10 -11 9 -15 7 -20 -6 -5 -13 -9
-14 -15 -3 -7 10 -9 11 -9 0 0 -7 -5 -10 -10 -7 -6 3 -10 2 -10 -4 0 -5 -9 -8
-19 -6 -13 2 -18 -1 -15 -9 3 -8 -2 -16 -11 -20 -9 -3 -14 -2 -11 2 3 5 -1 9
-9 9 -8 0 -14 -3 -13 -6 1 -16 -15 -50 -22 -46 -5 3 -5 -7 -1 -23 5 -17 5 -36
-1 -47 -7 -12 -7 -20 1 -24 7 -4 9 -15 5 -24 -3 -10 -1 -17 6 -17 6 0 8 6 5
13 -4 6 0 3 9 -7 8 -10 13 -23 10 -27 -2 -4 4 -6 16 -4 11 2 22 -1 26 -7 4 -6
10 -5 15 3 6 10 9 10 9 2 0 -9 7 -10 23 -4 13 5 30 6 37 1 7 -4 26 -4 41 0 16
5 31 5 33 1 4 -7 46 -7 54 -1 8 7 29 5 41 -4 8 -6 17 -9 20 -8 31 18 39 20 51
9 10 -9 11 -9 6 1 -4 6 -6 12 -4 13 2 0 25 3 53 6 27 3 55 12 61 21 9 12 13
12 19 2 6 -9 4 -11 -5 -5 -9 6 -11 4 -6 -4 6 -9 12 -9 25 3 9 8 34 17 55 20
20 3 43 9 50 15 9 7 16 7 24 -1 9 -9 12 -9 12 1 0 8 7 11 20 8 11 -3 23 -1 26
4 3 6 12 6 22 0 9 -5 26 -5 40 0 14 5 30 6 36 2 10 -7 32 -9 46 -3 19 7 41 7
46 -1 3 -5 13 -5 25 1 12 7 19 7 19 1 0 -7 9 -7 25 -1 14 5 25 6 25 1 0 -4 20
-5 45 -1 25 4 48 3 51 -2 3 -4 14 -4 24 2 13 7 21 7 25 0 4 -7 13 -7 26 0 10
6 19 7 19 2 0 -5 7 -9 15 -9 8 0 15 3 15 7 0 9 32 6 48 -4 7 -4 12 -2 12 5 0
7 5 8 13 3 11 -8 32 -10 47 -4 19 7 41 7 45 0 3 -5 12 -7 20 -3 23 8 62 -5 62
-20 0 -9 -7 -12 -20 -9 -15 4 -19 1 -15 -9 4 -10 -1 -15 -15 -17 -12 0 -23 -6
-25 -12 -3 -7 -9 -7 -20 2 -13 11 -14 11 -7 -1 6 -11 4 -13 -11 -8 -18 7 -18
6 -2 -7 26 -19 22 -27 -7 -16 -16 6 -27 6 -31 -2 -4 -7 -3 -8 4 -4 7 4 12 2
12 -3 0 -6 -10 -11 -22 -12 -13 0 -17 -3 -10 -6 20 -8 14 -22 -8 -18 -11 2
-19 1 -19 -3 3 -19 -2 -33 -10 -28 -11 7 5 -70 21 -101 6 -12 15 -20 20 -17 4
3 8 -2 8 -11 0 -9 5 -13 10 -10 6 4 7 11 4 17 -4 7 -2 8 5 4 6 -4 8 -12 5 -18
-5 -7 4 -9 25 -6 18 3 34 2 36 -2 2 -4 25 -4 50 0 25 4 48 3 51 -2 3 -5 12 -4
19 2 9 8 15 8 20 0 4 -7 12 -7 26 0 14 8 19 7 19 -2 1 -8 7 -5 15 6 11 14 15
16 15 5 0 -9 3 -10 8 -3 4 6 15 10 25 8 10 -1 17 4 17 13 0 12 3 13 13 4 11
-8 18 -6 33 12 l19 22 -24 -20 -24 -20 14 22 c7 12 22 23 34 25 15 2 19 10 18
28 -1 14 1 19 3 13 8 -19 34 -16 34 5 1 15 2 15 17 -3 15 -20 15 -20 10 3 -4
18 -3 21 8 12 10 -8 15 -8 21 1 5 8 3 9 -7 4 -12 -7 -12 -6 -1 7 8 9 20 14 28
11 8 -3 14 1 14 10 0 9 5 19 12 23 6 4 8 3 4 -4 -3 -6 -2 -13 4 -17 5 -3 10 1
10 10 0 12 5 15 16 11 12 -5 15 -2 10 11 -6 14 -5 15 5 6 8 -8 18 -9 30 -3 10
6 20 6 23 2 3 -5 15 -8 28 -6 13 1 27 3 31 3 5 1 5 7 1 14 -5 8 -2 8 9 -2 13
-10 17 -10 17 -1 0 7 7 10 15 6 8 -3 15 -1 15 5 0 6 7 6 20 -1 16 -9 20 -8 20
5 0 8 5 15 11 15 5 0 7 -4 4 -10 -3 -5 13 -3 36 5 23 8 50 15 61 15 10 0 17 3
15 8 -3 4 20 6 51 6 33 -1 60 3 64 10 5 7 8 6 8 -3 0 -11 4 -9 15 5 8 10 15
14 15 7 0 -8 13 -7 46 3 26 7 49 12 53 10 4 -3 13 -1 20 3 7 5 29 5 47 1 27
-6 33 -5 25 4 -8 9 -2 12 22 11 18 -1 38 4 46 9 11 9 13 8 7 -3 -6 -9 -1 -8
16 3 14 9 28 13 31 9 4 -3 7 0 7 8 0 11 2 11 10 -1 7 -12 10 -12 10 -1 0 7 6
11 15 7 8 -3 15 -1 15 5 0 6 7 9 15 6 8 -4 17 -2 21 4 4 7 10 7 18 0 7 -6 17
-6 26 -1 8 5 18 6 22 4 5 -3 11 2 14 11 6 13 8 14 15 3 7 -10 9 -10 9 3 0 10
8 15 23 14 12 -1 28 3 36 9 14 11 17 11 36 -3 10 -7 79 12 71 20 -2 2 17 2 44
1 26 -2 58 2 70 8 13 7 20 8 16 2 -3 -6 -3 -13 2 -16 5 -3 9 1 10 9 1 8 3 22
4 30 1 8 5 12 10 9 5 -3 5 -10 2 -16 -4 -6 3 -5 16 2 12 7 33 10 46 7 13 -2
24 -1 24 3 0 5 8 6 19 3 16 -4 19 2 23 37 2 23 0 44 -5 47 -4 2 -3 10 2 17 6
7 8 16 4 19 -3 4 2 7 11 7 13 0 16 5 12 17 -4 10 -4 14 -1 11 4 -4 18 -3 31 2
14 6 26 6 29 0 4 -7 13 -6 26 0 11 6 19 7 19 1 0 -5 7 -12 16 -15 8 -3 12 -2
9 4 -3 6 -1 10 4 10 6 0 11 -5 11 -11 0 -5 5 -7 10 -4 6 3 10 2 10 -3 0 -5 11
-8 25 -7 14 2 27 -1 31 -6 3 -5 8 -7 12 -5 4 2 28 1 55 -4 28 -4 47 -3 47 3 0
5 6 4 14 -2 8 -7 17 -8 20 -3 3 5 23 6 46 2 25 -4 40 -4 40 3 0 5 6 4 14 -2
10 -8 16 -9 21 -1 4 7 12 7 26 0 14 -8 19 -7 19 1 0 9 3 9 14 0 10 -8 16 -9
21 -1 4 7 12 7 26 0 14 -8 19 -7 19 1 0 9 3 9 14 0 10 -8 16 -9 21 -1 4 7 12
7 26 0 15 -8 19 -7 19 4 0 8 5 18 12 22 6 4 8 3 4 -4 -3 -6 -2 -13 4 -17 5 -3
10 -2 10 3 0 5 12 10 27 10 15 0 29 5 31 11 3 9 8 8 20 -1 13 -11 15 -10 10 7
-4 17 0 21 19 23 17 1 22 -2 17 -11 -4 -6 2 -4 13 6 14 12 23 15 28 8 4 -7 12
-8 23 -2 11 6 24 6 35 0 13 -8 19 -6 23 5 3 9 11 13 18 9 6 -4 4 2 -4 12 -9
11 -10 16 -2 11 7 -4 12 -1 12 8 0 9 5 16 11 16 5 0 7 -5 3 -12 -5 -7 -3 -8 5
-3 7 4 11 16 8 26 -3 12 0 19 10 19 10 0 12 6 8 21 -5 15 -4 19 5 14 7 -4 13
1 17 14 3 12 9 21 13 21 4 0 10 9 13 21 4 14 10 18 18 13 9 -5 10 -2 6 10 -4
10 -3 15 3 11 6 -3 10 -1 10 6 0 7 3 9 6 6 4 -4 15 3 25 15 11 11 19 18 19 15
0 -4 8 1 18 10 11 10 16 23 13 28 -2 6 4 3 14 -5 11 -9 16 -10 11 -2 -4 7 -2
12 4 12 6 0 8 5 4 13 -6 9 -5 9 8 0 19 -16 32 -4 15 15 -10 13 -9 14 11 3 18
-9 22 -9 20 1 -2 7 4 13 12 13 8 0 22 7 30 15 8 8 22 15 30 15 8 0 14 6 12 14
-3 12 0 12 12 1 11 -8 16 -9 16 -1 0 6 7 11 15 11 8 0 15 5 15 11 0 5 -6 7
-12 3 -7 -4 -9 -3 -5 1 12 14 38 15 31 2 -3 -7 1 -4 9 5 8 10 18 14 22 10 5
-4 6 0 2 9 -4 13 -1 16 15 11 16 -4 20 -1 16 9 -4 10 1 15 12 15 11 0 16 -6
14 -16 -3 -8 1 -5 7 7 7 13 16 23 21 23 5 0 6 -5 2 -12 -4 -7 -3 -8 5 -4 9 6
9 11 0 22 -10 12 -9 13 6 8 14 -6 16 -4 10 6 -6 9 -4 11 5 5 8 -5 17 -2 24 6
6 8 18 14 26 14 9 0 14 7 12 19 -3 18 -2 18 13 2 18 -18 30 -21 20 -6 -3 6 1
10 10 10 9 0 13 5 9 11 -4 8 1 9 16 4 17 -5 21 -4 15 6 -6 9 -2 11 13 7 12 -4
20 -2 16 3 -3 5 0 9 6 9 6 0 9 4 5 9 -3 6 4 8 15 6 11 -2 20 1 20 6 0 6 4 8 8
5 11 -6 26 4 41 29 7 11 10 13 8 4 -3 -9 1 -16 8 -16 8 0 13 5 12 11 -1 6 6
10 16 9 13 -1 17 4 12 14 -4 13 -3 14 9 4 9 -8 16 -8 20 -2 4 5 15 8 26 6 13
-2 17 1 14 10 -6 14 19 15 32 2 14 -14 10 -54 -5 -53 -9 1 -16 -5 -17 -11 -3
-25 -4 -25 -19 -13 -12 10 -14 8 -10 -9 2 -12 0 -19 -5 -16 -9 6 -51 -29 -49
-41 0 -3 -3 -9 -7 -12 -4 -4 -4 -1 0 6 4 6 2 12 -3 12 -6 0 -11 -4 -11 -10 0
-5 -5 -10 -11 -10 -5 0 -7 5 -3 12 4 7 3 8 -4 4 -7 -4 -12 -17 -12 -29 0 -18
-2 -19 -10 -7 -5 8 -10 10 -10 4 0 -7 -9 -14 -21 -17 -14 -4 -18 -10 -13 -19
6 -10 4 -10 -9 1 -13 10 -17 10 -17 1 0 -7 -8 -10 -20 -7 -11 3 -23 0 -27 -5
-3 -7 -1 -8 5 -4 7 4 12 2 12 -3 0 -6 -9 -11 -19 -11 -11 0 -23 -5 -27 -12 -5
-7 -2 -8 7 -3 12 7 12 5 1 -6 -11 -12 -14 -12 -22 1 -8 12 -10 10 -10 -10 0
-20 -2 -22 -10 -10 -8 13 -10 13 -10 -1 0 -10 -7 -16 -17 -15 -11 0 -17 -5
-15 -13 2 -11 0 -12 -11 -2 -12 9 -16 8 -21 -5 -4 -9 -12 -14 -21 -10 -9 3
-18 -1 -21 -9 -4 -8 -11 -12 -16 -9 -6 4 -5 -2 1 -14 10 -18 9 -20 -10 -17
-15 3 -19 0 -15 -10 3 -8 1 -17 -4 -20 -6 -4 -10 -1 -10 4 0 6 -4 11 -9 11 -6
0 -8 -9 -6 -20 3 -15 -3 -24 -18 -29 -12 -5 -25 -7 -30 -4 -4 2 -6 -1 -5 -9 2
-7 -3 -12 -10 -10 -8 1 -11 -2 -7 -8 5 -8 14 -5 28 7 l22 18 -19 -22 c-10 -12
-26 -25 -36 -28 -9 -3 -17 -12 -17 -20 0 -11 4 -12 16 -4 9 7 5 1 -9 -12 -15
-15 -25 -35 -25 -51 1 -15 -1 -25 -4 -22 -7 7 -28 -59 -22 -71 8 -16 8 -45 0
-45 -12 0 12 -52 31 -68 8 -8 9 -11 3 -7 -21 10 -15 -14 6 -27 15 -9 17 -15 9
-25 -8 -11 -7 -12 7 -7 13 5 16 4 11 -4 -4 -7 -2 -12 6 -12 9 0 9 -3 -2 -10
-11 -7 -11 -10 -2 -10 8 0 10 -5 6 -12 -5 -7 -2 -9 9 -5 12 5 14 0 11 -21 -5
-26 -5 -26 10 -7 l15 20 -2 -20 c-2 -15 3 -19 18 -17 20 3 20 3 1 -11 -15 -11
-16 -16 -6 -22 9 -5 11 -4 6 3 -4 7 -1 12 8 12 9 0 13 -6 10 -14 -3 -8 0 -17
7 -22 7 -4 10 -3 6 3 -3 5 0 10 7 10 8 0 11 -10 9 -26 -3 -23 -2 -24 6 -6 9
19 10 19 10 -2 1 -13 6 -23 12 -23 5 0 7 -4 4 -10 -3 -5 -1 -10 4 -10 6 0 11
-5 11 -11 0 -5 -4 -7 -10 -4 -9 6 -15 -8 -11 -29 1 -5 -6 -3 -15 5 -12 9 -15
9 -10 2 4 -7 2 -13 -3 -13 -6 0 -10 -3 -10 -7 3 -21 -2 -34 -11 -28 -6 4 -10
3 -9 -2 1 -4 0 -10 -1 -13 -1 -3 -4 -30 -5 -60 -3 -42 0 -58 13 -68 14 -11 14
-12 -4 -12 -13 -1 -8 -5 15 -15 18 -8 36 -13 40 -11 4 3 13 1 21 -4 7 -4 23
-5 35 0 12 5 28 5 35 0 7 -5 24 -4 38 1 13 5 30 6 36 2 10 -7 32 -9 46 -3 20
7 41 7 46 -2 3 -5 15 -2 27 9 11 10 17 12 13 5 -4 -7 -2 -12 7 -12 8 0 18 8
21 17 6 15 8 15 16 3 7 -11 10 -11 10 -2 0 7 7 12 16 10 10 -2 19 4 21 12 4
13 3 13 -7 0 -10 -13 -11 -13 -7 0 2 8 11 15 19 14 12 -1 16 10 20 53 1 7 4
12 7 11 19 -2 24 4 11 13 -12 9 -10 10 8 6 18 -4 21 -3 12 8 -8 10 -8 15 1 21
8 4 9 3 5 -4 -9 -16 7 -15 22 0 9 9 12 9 12 0 0 -10 5 -10 20 -2 11 6 20 7 20
2 0 -7 39 -8 48 -2 7 7 29 5 40 -3 8 -6 12 -5 12 3 0 8 4 9 13 4 11 -8 32 -10
47 -4 19 7 41 7 46 -1 3 -5 13 -5 25 1 10 6 19 7 19 2 0 -5 7 -9 15 -9 8 0 15
3 15 7 0 9 32 6 48 -4 7 -4 12 -2 12 6 0 10 2 10 9 -1 7 -10 34 -15 91 -17 46
-2 85 -6 88 -8 2 -3 13 -1 23 5 11 6 19 6 19 0 0 -5 7 -12 16 -15 8 -3 12 -2
9 4 -3 6 -1 10 4 10 6 0 11 -5 11 -11 0 -5 5 -7 10 -4 6 3 10 2 10 -2 0 -10
41 -10 57 0 7 4 15 3 18 -3 5 -8 11 -7 21 1 11 9 17 9 28 0 10 -9 16 -9 21 -1
5 8 11 8 19 1 9 -7 17 -7 26 2 10 9 11 9 6 0 -5 -9 1 -13 18 -13 14 0 26 -4
26 -9 0 -6 9 -8 20 -6 11 2 20 -2 20 -8 0 -7 4 -6 10 3 7 11 10 11 10 2 0 -7
5 -10 10 -7 6 3 10 0 10 -7 0 -8 3 -9 8 -3 10 14 41 12 51 -4 7 -11 9 -11 14
0 4 10 6 10 6 -2 1 -9 10 -19 21 -22 11 -3 18 -1 14 4 -3 5 2 6 10 3 8 -3 17
-12 20 -20 3 -7 11 -11 19 -8 8 3 20 -2 27 -10 7 -9 16 -13 22 -10 5 3 15 0
23 -6 12 -10 15 -10 15 1 0 11 2 11 10 -1 5 -8 10 -11 10 -6 0 5 7 3 15 -4 8
-6 19 -9 25 -5 5 3 10 3 10 -2 0 -9 88 -9 97 1 3 3 12 1 20 -5 7 -6 13 -8 13
-3 0 5 31 8 70 7 40 -1 70 3 70 8 0 6 5 7 10 4 8 -5 14 14 12 36 -1 4 6 6 16
5 10 -1 17 7 18 21 1 12 4 28 7 37 4 9 2 16 -4 16 -6 0 -7 5 -4 10 3 6 -1 10
-9 10 -9 0 -13 7 -11 19 3 15 0 18 -13 14 -15 -6 -16 -5 -2 12 14 17 14 18
-10 5 -24 -13 -24 -12 -10 5 8 10 10 16 3 12 -6 -4 -18 -1 -26 7 -8 8 -18 12
-22 8 -5 -4 -5 1 -2 10 3 10 1 20 -5 24 -6 4 -8 3 -4 -4 4 -6 -1 -10 -13 -9
-11 0 -17 5 -15 9 3 4 -4 8 -15 8 -12 0 -21 5 -21 11 0 6 -5 7 -12 2 -16 -9
-34 -10 -76 -2 -17 4 -34 3 -37 -1 -5 -9 -91 6 -117 20 -12 7 -18 7 -18 0 0
-6 -9 -6 -26 0 -19 8 -23 7 -17 -3 4 -7 -4 -5 -18 4 -19 13 -30 14 -43 7 -13
-7 -17 -7 -12 0 3 5 -6 12 -19 15 -14 2 -28 0 -31 -5 -4 -6 -9 -6 -13 -1 -10
14 -61 33 -61 23 0 -12 -51 10 -68 30 -8 8 -11 9 -7 3 11 -23 -14 -14 -26 9
-7 13 -14 18 -16 11 -3 -8 -11 -5 -24 8 -25 25 -24 43 1 36 11 -3 20 -1 20 3
0 5 14 5 30 0 19 -5 30 -5 30 1 0 6 6 7 12 3 7 -5 28 -7 46 -5 18 1 40 -3 49
-11 14 -11 16 -11 8 2 -8 13 -5 12 15 -1 17 -11 32 -14 48 -8 13 5 22 4 22 -1
0 -6 9 -6 23 -1 13 5 30 6 37 1 7 -5 24 -4 36 0 13 5 26 5 29 1 3 -5 20 -5 39
-1 19 4 37 5 40 2 9 -8 66 -8 66 1 0 4 9 3 20 -3 12 -6 40 -13 63 -16 23 -3
48 -7 55 -9 6 -2 12 1 12 7 0 7 4 7 13 -1 8 -6 17 -8 21 -4 9 10 76 10 76 0 0
-14 24 -2 51 28 16 17 29 24 29 17 0 -7 4 -11 10 -7 5 3 7 12 3 21 -3 8 3 21
13 29 12 9 14 14 6 15 -8 0 -10 5 -5 12 14 23 8 53 -12 66 -15 10 -15 12 -3 8
15 -4 16 -2 6 19 -6 13 -21 26 -34 29 -17 5 -22 11 -17 24 6 15 5 16 -12 2
-11 -9 -16 -10 -11 -2 4 8 1 12 -10 12 -12 0 -15 6 -11 21 4 16 3 18 -8 9 -8
-7 -21 -7 -38 -1 -18 7 -28 7 -33 0 -4 -7 -10 -6 -19 1 -10 8 -15 8 -20 0 -5
-8 -11 -8 -19 -1 -9 7 -16 7 -24 -1 -9 -9 -12 -9 -12 3 -1 10 -5 9 -15 -5 -8
-11 -15 -14 -15 -8 0 10 -5 10 -21 2 -11 -7 -27 -9 -35 -6 -8 3 -14 2 -14 -3
0 -5 -18 -5 -40 -1 -22 4 -40 3 -40 -2 0 -5 -9 -4 -20 2 -11 6 -20 7 -20 2 0
-5 -18 -6 -40 -2 -25 5 -40 4 -40 -3 0 -5 -6 -4 -14 2 -8 7 -16 8 -19 4 -3 -4
-59 -6 -126 -3 -67 3 -121 1 -121 -3 0 -4 -9 -3 -20 3 -11 6 -20 7 -20 2 0 -4
-27 -5 -60 -2 -33 3 -60 2 -60 -2 0 -5 -9 -4 -20 2 -11 6 -20 7 -20 3 0 -4 -5
0 -10 9 -6 9 -26 22 -45 28 -19 6 -33 15 -31 19 3 4 -5 13 -17 21 -21 12 -21
12 -7 -6 14 -18 14 -18 -3 -5 -10 8 -16 20 -13 27 3 7 0 15 -7 18 -9 3 -8 5 1
5 7 1 11 5 8 10 -4 5 4 7 16 3 16 -4 20 -2 16 10 -4 8 -1 15 5 16 42 4 54 10
69 32 10 14 18 20 18 14 0 -5 -6 -16 -12 -22 -7 -7 2 -6 20 3 17 9 32 21 32
26 0 5 4 8 9 7 5 -2 17 6 26 17 9 11 14 13 10 5 -4 -10 -2 -10 8 2 11 14 16
15 26 5 7 -7 12 -7 11 -2 -5 23 1 45 11 45 5 0 8 -4 4 -9 -3 -5 -1 -13 5 -16
6 -4 10 -3 9 2 -1 4 -1 17 0 28 1 15 3 17 10 6 6 -9 11 -10 15 -2 4 6 5 15 2
20 -3 4 5 6 18 4 13 -3 27 0 30 6 5 7 1 8 -10 4 -11 -4 -15 -2 -11 4 4 6 20
13 37 17 22 4 29 10 24 18 -5 9 -2 9 9 -1 15 -12 17 -12 12 2 -4 8 -1 18 6 23
8 5 10 3 4 -6 -5 -8 -3 -11 6 -8 8 3 15 10 15 16 3 23 4 24 18 13 11 -10 16
-8 21 9 6 18 9 19 23 8 13 -11 15 -10 10 8 -5 18 -2 22 17 19 13 -1 30 6 39
16 9 11 23 19 31 19 8 0 15 5 15 10 0 6 6 10 14 10 8 0 22 8 32 17 9 10 24 18
33 20 8 1 20 8 26 15 5 8 19 14 30 14 11 0 19 5 17 12 -1 7 9 17 23 24 13 6
22 16 18 21 -4 6 0 8 10 4 10 -3 17 -2 17 3 0 6 9 10 20 10 12 0 20 7 20 16 0
14 3 14 15 4 15 -12 16 -11 19 12 0 6 7 13 15 16 9 3 11 0 6 -8 -5 -8 3 -5 17
6 14 10 24 24 21 30 -2 7 1 15 8 20 8 4 10 3 5 -4 -4 -7 -2 -12 3 -12 6 0 11
7 11 15 0 9 6 12 15 9 9 -4 15 0 15 9 0 9 5 19 12 23 7 4 8 3 4 -4 -4 -8 -2
-10 8 -6 8 3 13 14 11 25 -2 10 1 22 7 25 6 4 8 3 5 -3 -4 -6 0 -13 8 -16 9
-4 12 -1 8 9 -3 9 1 14 12 14 14 0 15 3 5 15 -10 12 -8 14 9 10 14 -2 21 1 21
11 0 8 5 12 10 9 6 -3 10 -1 10 5 0 6 5 8 13 4 9 -6 9 -5 0 8 -16 19 -4 32 15
15 13 -10 14 -9 4 10 -11 20 -10 21 9 18 15 -3 19 0 15 10 -3 8 -1 17 4 20 6
4 10 1 10 -4 0 -6 5 -11 12 -11 6 0 8 3 5 7 -4 3 -1 13 6 21 10 13 9 14 -2 7
-10 -6 -12 -4 -7 4 5 7 14 10 21 7 16 -6 54 35 48 52 -3 8 1 10 11 6 13 -5 15
-2 9 12 -6 17 -5 18 12 4 17 -14 18 -14 7 7 -11 20 -10 21 9 18 15 -3 19 0 15
10 -3 8 -1 17 4 20 6 4 10 1 10 -4 0 -6 5 -11 11 -11 5 0 8 4 4 9 -3 6 3 15
12 21 16 11 16 11 -2 5 -20 -6 -20 -6 0 13 11 11 23 18 27 16 4 -3 10 1 14 7
4 8 3 9 -4 5 -7 -4 -12 -2 -12 3 0 6 6 11 14 11 7 0 19 7 26 15 9 11 9 15 1
15 -7 0 -10 4 -6 10 3 5 12 7 19 4 7 -3 19 3 27 13 12 16 12 17 -2 6 -13 -10
-16 -10 -16 1 0 9 9 13 24 11 24 -2 32 10 11 18 -7 3 -2 6 12 6 20 1 22 3 10
11 -14 9 -7 14 13 11 5 -1 11 8 14 19 4 15 9 18 18 10 8 -7 12 -6 12 4 0 19
25 78 30 72 9 -9 31 19 26 31 -3 7 2 13 10 13 9 0 19 5 23 12 5 7 3 8 -5 3
-10 -5 -9 -2 0 13 7 12 17 18 22 15 4 -3 8 1 6 8 -4 32 1 42 15 30 11 -9 12
-6 8 14 -4 21 -1 24 14 19 15 -6 17 -4 7 6 -9 10 -8 16 3 28 8 8 13 21 10 28
-3 8 -1 14 4 14 5 0 7 6 4 14 -3 8 -1 17 5 21 6 3 11 17 11 31 0 13 4 24 9 24
5 0 7 10 3 22 -4 16 -2 19 9 13 12 -8 12 -6 0 8 -10 13 -10 17 -1 17 7 0 10 7
6 15 -3 8 -1 15 5 15 6 0 6 7 -1 20 -6 11 -7 20 -2 20 4 0 5 27 2 60 -3 35 -2
64 4 70 7 7 6 10 -2 10 -9 0 -10 5 -4 17 10 20 5 46 -7 38 -5 -2 -8 6 -7 18 1
12 -2 25 -7 28 -4 3 -9 16 -10 27 -1 12 -5 22 -10 22 -4 0 -5 5 -2 10 3 6 1
10 -4 10 -6 0 -11 5 -11 11 0 5 6 7 13 4 6 -4 1 3 -11 14 -13 11 -25 29 -26
38 -2 10 -12 23 -23 28 -11 6 -18 15 -16 22 4 12 -30 36 -39 28 -3 -3 -5 2 -5
10 0 12 3 12 16 2 14 -11 14 -10 2 6 -7 9 -21 17 -30 17 -17 0 -44 26 -54 51
-4 10 -6 10 -6 2 -1 -7 -6 -13 -13 -13 -6 0 -8 3 -5 7 9 9 -24 32 -46 33 -10
0 -15 4 -12 10 4 7 -3 7 -20 0 -14 -5 -24 -6 -21 -1 7 11 -22 23 -35 15 -5 -3
-9 0 -9 6 0 7 -7 10 -15 6 -8 -3 -18 2 -23 11 -7 11 -11 12 -17 4 -5 -9 -10
-9 -21 0 -8 6 -14 8 -14 4 0 -4 -8 -1 -17 6 -15 12 -16 12 -8 -1 7 -13 6 -13
-7 -2 -8 7 -23 10 -32 6 -9 -3 -16 -2 -16 2 0 5 -25 9 -55 9 -30 0 -55 -4 -55
-9 0 -5 -6 -3 -14 3 -10 8 -16 9 -21 1 -4 -7 -12 -7 -26 0 -14 8 -19 7 -19 -1
0 -9 -3 -9 -14 0 -10 8 -16 9 -21 1 -4 -7 -12 -7 -26 0 -13 8 -19 7 -19 0 0
-8 -6 -8 -20 0 -12 6 -20 7 -20 1 0 -5 -11 -8 -25 -6 -14 1 -25 -1 -25 -6 0
-4 -18 -7 -40 -6 -22 2 -40 -1 -40 -5 0 -4 -10 -8 -22 -8 -13 -1 -34 -7 -48
-15 -31 -18 -43 -19 -35 -3 4 7 -1 4 -10 -7 -16 -20 -16 -20 -31 -1 -12 17
-12 23 0 40 8 12 19 20 25 19 6 -2 11 2 11 7 0 6 8 10 18 10 14 0 15 2 2 10
-11 7 -11 10 -2 10 7 0 10 5 6 11 -4 8 0 8 15 0 16 -9 21 -9 19 0 -2 6 3 14
11 17 9 3 11 0 6 -8 -5 -9 -4 -11 4 -6 9 6 9 11 1 21 -9 11 -6 13 14 11 23 -3
24 -1 14 18 -10 19 -10 20 5 7 15 -12 17 -11 17 3 0 9 5 16 10 16 6 0 10 7 10
16 0 13 3 14 15 4 12 -10 14 -8 10 9 -2 14 1 21 11 21 8 0 12 5 9 10 -3 6 -1
10 5 10 6 0 8 5 4 13 -6 9 -5 9 8 0 18 -15 29 -7 20 15 -5 15 -3 15 11 4 14
-12 16 -11 12 7 -2 14 1 21 11 21 8 0 12 5 9 10 -3 6 -1 10 5 10 6 0 8 5 4 13
-5 8 -2 8 9 -2 9 -7 18 -10 19 -5 0 5 2 14 3 19 2 6 3 15 4 20 1 6 5 4 9 -3 6
-9 13 -6 28 10 10 13 19 29 19 37 0 8 7 16 15 18 13 4 13 3 0 -7 -13 -10 -13
-11 0 -7 8 2 15 11 15 20 0 9 9 24 19 34 10 10 16 12 12 6 -12 -22 4 -14 34
17 35 36 45 38 30 8 -11 -21 -10 -21 8 1 11 14 18 30 16 36 -3 7 3 18 13 26
16 12 17 12 6 -2 -10 -13 -10 -16 2 -16 7 0 14 3 13 6 -2 20 4 31 13 25 7 -4
9 0 5 13 -5 17 -2 20 19 18 14 -2 23 0 20 5 -2 4 4 15 15 25 11 10 20 24 20
31 0 7 5 16 11 20 8 4 9 -1 4 -17 -7 -23 -7 -23 8 -4 8 10 13 24 10 30 -2 7 4
18 14 26 16 12 17 12 6 -2 -10 -13 -10 -16 2 -16 7 0 13 3 12 6 -3 14 15 51
25 51 6 0 5 -7 -3 -17 -12 -16 -11 -16 8 0 12 11 19 24 17 31 -3 7 3 19 13 27
16 12 17 12 6 -2 -10 -13 -10 -16 2 -16 7 0 14 3 13 6 0 3 0 15 1 26 1 17 3
18 11 5 8 -13 10 -13 10 2 0 12 5 15 17 11 12 -5 14 -3 8 7 -6 10 -4 12 9 7
10 -4 15 -3 11 3 -3 6 2 10 12 11 10 0 13 3 6 6 -22 8 -14 21 11 19 18 -2 23
1 18 12 -4 11 -1 14 11 9 15 -6 16 -4 6 14 -10 19 -9 20 10 9 12 -6 21 -7 20
-3 -3 20 2 34 11 28 6 -4 9 -1 8 7 -2 7 3 12 11 10 9 -2 11 3 7 14 -6 14 -4
15 9 4 13 -11 16 -11 13 1 -2 8 4 13 14 13 10 -1 20 7 23 17 5 15 10 17 24 9
23 -12 35 -1 19 17 -10 12 -8 14 8 11 11 -2 18 2 16 10 -2 10 2 10 18 2 16 -8
20 -8 18 2 -2 7 4 14 12 14 8 1 19 2 24 3 5 0 3 7 -3 15 -9 11 -6 12 14 8 17
-3 27 1 31 12 3 9 10 13 15 10 5 -3 9 0 9 6 0 6 4 9 9 6 5 -3 12 1 15 10 4 11
14 15 29 12 15 -3 24 0 24 8 0 7 -5 10 -11 7 -6 -3 -7 -2 -3 3 5 5 16 9 25 9
11 0 16 7 14 19 -3 18 -2 18 13 2 19 -19 29 -21 19 -4 -5 7 -2 9 9 5 11 -4 14
-2 11 8 -4 10 0 13 16 10 19 -4 20 -2 8 12 -9 12 -10 15 0 9 17 -10 43 18 36
39 -5 13 -9 13 -22 3 -11 -9 -13 -9 -9 -1 4 6 3 14 -3 18 -6 4 -8 11 -5 16 4
5 1 17 -4 26 -6 11 -11 13 -11 5 0 -7 -4 -10 -10 -7 -5 3 -10 1 -10 -4 0 -6
-7 -11 -16 -11 -8 0 -13 -4 -10 -9 3 -4 -9 -8 -27 -8 -17 0 -40 -4 -51 -8 -12
-5 -21 -3 -27 6 -5 8 -9 10 -9 5 0 -5 -9 -1 -20 9 -11 10 -23 15 -27 12 -3 -4
-1 -7 5 -7 7 0 12 -5 12 -12 0 -6 -8 -4 -19 6 -11 10 -24 15 -29 12 -5 -3 -12
4 -16 17 -8 31 -7 39 3 32 6 -3 9 3 8 14 -1 15 -5 17 -23 11 -16 -6 -26 -5
-34 5 -7 8 -16 13 -20 10 -5 -3 -12 4 -15 15 -5 17 -10 19 -21 9 -10 -8 -14
-8 -14 0 0 6 -13 11 -30 11 -16 0 -30 4 -30 9 0 4 -12 7 -27 5 -16 -1 -36 5
-46 14 -17 15 -17 15 -11 -4 7 -18 6 -18 -12 -3 -10 8 -29 14 -41 13 -13 0
-23 2 -23 6 0 4 -10 6 -22 6 -13 -1 -29 2 -35 7 -8 6 -13 6 -13 0 0 -5 -7 -10
-15 -10 -8 0 -15 5 -15 10 0 5 -7 6 -16 3 -9 -4 -24 -1 -32 6 -12 10 -14 10
-8 1 5 -9 2 -11 -8 -7 -9 3 -16 10 -16 15 0 6 -8 5 -19 -1 -14 -7 -22 -7 -26
0 -5 8 -11 8 -19 1 -9 -7 -16 -7 -24 1 -7 7 -12 9 -12 5 0 -3 -20 0 -45 8 -28
8 -47 9 -51 4 -3 -6 -11 -5 -20 2 -10 8 -14 8 -14 0 0 -7 -8 -8 -25 -1 -13 5
-26 6 -29 2 -3 -4 -32 -5 -65 -2 -34 3 -61 2 -61 -3 0 -5 -6 -4 -14 2 -9 7
-17 8 -20 3 -3 -6 -20 -7 -40 -2 -19 4 -40 4 -47 -1 -8 -5 -22 -6 -33 -3 -13
5 -16 3 -11 -7 6 -9 3 -11 -8 -6 -10 3 -17 2 -17 -4 0 -6 -7 -6 -20 1 -11 6
-20 7 -20 3 0 -4 -11 -8 -25 -8 -14 0 -25 4 -25 9 0 4 -12 1 -26 -9 -15 -9
-24 -12 -20 -7 3 6 2 13 -4 17 -5 3 -10 0 -10 -8 0 -10 -9 -14 -30 -13 -16 1
-30 -1 -30 -5 0 -4 -13 -4 -28 1 -22 6 -31 4 -39 -10 -11 -17 -43 -24 -43 -9
0 5 -11 4 -25 -1 -17 -7 -25 -6 -25 1 0 7 -6 6 -17 -2 -15 -13 -42 -19 -91
-19 -15 0 -21 -4 -16 -12 4 -6 3 -8 -4 -4 -6 3 -29 2 -51 -3 -26 -5 -41 -5
-41 1 0 5 -5 6 -10 3 -6 -4 -8 -11 -5 -16 4 -5 2 -9 -4 -9 -18 0 -23 21 -8 38
7 9 17 25 20 35 4 10 13 17 21 15 19 -4 56 40 56 66 0 17 2 18 10 6 11 -18 12
-15 15 68 1 29 5 56 9 59 3 3 1 12 -5 20 -9 10 -8 13 0 13 7 0 9 5 5 12 -7 11
-11 26 -16 65 -1 7 -6 9 -11 6 -5 -3 -7 0 -5 8 3 8 -4 20 -16 27 -15 9 -16 12
-3 8 16 -5 16 -4 1 19 -16 24 -32 36 -18 13 4 -7 3 -8 -5 -4 -9 6 -9 11 0 22
10 12 9 13 -6 8 -12 -5 -16 -4 -12 3 8 13 -17 36 -27 26 -4 -4 -4 1 0 11 5 14
4 17 -4 12 -7 -4 -12 -2 -12 4 0 6 -4 8 -10 5 -5 -3 -10 1 -10 9 0 9 -5 16
-11 16 -5 0 -7 5 -3 12 5 8 2 9 -10 5 -14 -5 -17 -3 -12 8 4 10 -1 15 -14 15
-12 0 -28 13 -38 29 -9 15 -20 28 -24 27 -3 -1 -10 3 -15 8 -4 5 -3 6 4 2 6
-3 15 -2 18 4 4 6 3 10 -2 9 -21 -4 -34 2 -27 13 4 6 3 9 -2 5 -5 -3 -20 1
-34 9 l-25 15 25 -6 c23 -5 22 -4 -5 12 -16 9 -34 18 -40 18 -5 0 -9 8 -7 17
4 24 -33 59 -46 46 -8 -8 -9 -4 -6 13 4 17 3 20 -4 10 -8 -11 -11 -9 -17 8 -3
11 -13 21 -21 21 -8 0 -14 5 -14 11 0 5 -13 15 -29 20 -20 7 -28 16 -27 32 1
18 -4 21 -24 19 -20 -2 -22 -1 -10 7 12 9 9 11 -15 12 -29 1 -30 1 -5 9 24 8
24 8 3 9 -21 1 -28 11 -24 34 1 5 -3 6 -9 2 -6 -3 -7 -11 -4 -17 4 -7 2 -8 -5
-4 -6 4 -10 15 -9 24 2 9 -2 16 -9 15 -7 -2 -20 11 -30 28 -12 20 -24 29 -36
25 -16 -4 -16 -2 -5 12 11 14 10 15 -7 8 -11 -4 -16 -4 -13 0 9 8 -14 33 -25
27 -4 -2 -7 -1 -6 4 4 23 -2 35 -17 29 -8 -3 -12 -2 -9 4 3 6 1 10 -4 10 -6 0
-11 7 -11 15 0 9 -6 12 -17 8 -11 -4 -14 -3 -9 5 4 7 2 12 -4 12 -6 0 -8 5 -4
12 5 8 2 9 -11 5 -14 -6 -16 -3 -12 13 3 10 2 19 -2 18 -3 0 -15 0 -26 2 -20
1 -20 2 0 9 17 7 17 8 -8 15 -17 4 -25 11 -21 18 5 8 0 9 -17 5 -23 -6 -24 -6
-4 10 20 15 20 15 -3 8 -19 -5 -25 -1 -36 27 -8 18 -24 39 -35 46 -12 7 -21
17 -21 23 0 5 5 7 11 3 6 -3 4 4 -5 17 -10 16 -12 29 -6 39 5 9 5 19 -2 27 -7
9 -7 13 0 13 7 0 6 18 -3 50 -10 36 -10 48 -2 44 7 -3 5 0 -3 8 -9 7 -14 21
-12 30 2 9 -2 27 -9 40 -15 28 -18 68 -6 68 5 0 4 7 -4 16 -10 13 -10 17 2 26
11 8 11 9 -3 5 -20 -7 -31 16 -15 32 8 8 8 11 0 11 -7 0 -10 9 -8 20 3 13 0
18 -7 14 -7 -5 -9 -1 -5 9 3 10 2 17 -3 17 -5 0 -7 7 -4 15 5 11 2 13 -10 9
-9 -3 -14 -9 -12 -13 3 -4 2 -12 -2 -18 -5 -7 -16 7 -30 34 -18 38 -19 43 -5
32 17 -13 17 -13 0 7 -9 11 -14 24 -10 27 3 4 1 7 -6 7 -7 0 -9 5 -6 10 3 6 0
10 -7 10 -9 0 -9 3 2 10 11 7 11 10 2 10 -7 0 -10 5 -7 10 3 6 2 10 -4 10 -18
0 -24 48 -8 64 8 8 16 13 18 11 2 -2 4 10 3 26 0 16 -4 32 -9 37 -5 4 -5 1 -1
-5 4 -7 5 -13 2 -13 -10 0 -35 63 -29 74 4 6 -1 5 -10 -3 -15 -12 -17 -11 -17
8 0 11 -4 21 -10 21 -5 0 -10 7 -10 15 0 8 -4 15 -10 15 -5 0 -10 7 -10 15 0
9 -10 15 -22 16 -22 1 -22 1 2 9 14 4 21 8 15 9 -5 1 -21 11 -35 24 -14 12
-20 18 -13 13 10 -6 12 -5 7 7 -3 8 -12 18 -20 21 -8 3 -14 14 -12 23 2 10 -2
17 -9 15 -8 -1 -13 8 -13 22 0 13 -7 27 -16 30 -9 4 -14 9 -10 13 3 3 -4 11
-17 18 -15 7 -21 18 -19 33 2 16 -2 22 -15 22 -15 0 -16 2 -3 10 12 8 8 10
-15 11 -21 1 -24 3 -10 6 17 5 15 7 -10 18 -24 11 -26 14 -10 14 16 1 17 3 5
11 -9 5 -19 5 -26 -1 -9 -8 -11 -4 -7 13 4 19 3 20 -7 8 -9 -13 -10 -12 -6 5
3 11 1 27 -4 34 -5 9 -5 22 1 32 6 12 5 20 -1 24 -8 5 -8 11 0 20 6 8 7 16 2
19 -5 3 -8 17 -7 31 2 14 0 25 -5 25 -4 0 -6 9 -3 20 3 11 1 20 -4 20 -5 0
-10 10 -10 22 -1 13 -9 28 -18 34 -10 8 -12 14 -6 19 6 3 11 12 10 18 0 9 -2
9 -6 0 -2 -7 -10 -13 -16 -13 -5 0 -7 3 -4 6 3 4 2 15 -4 25 -7 14 -6 19 3 19
9 0 9 3 -2 10 -11 7 -11 10 -2 10 9 0 10 5 4 18 -5 9 -7 23 -5 30 3 8 -1 10
-13 5 -11 -4 -15 -2 -11 4 4 5 -5 15 -19 22 -14 6 -23 15 -19 20 3 5 -4 13
-15 16 -17 5 -19 9 -9 21 7 9 8 14 3 13 -22 -4 -35 2 -28 13 4 6 3 9 -2 5 -5
-3 -20 1 -34 9 l-25 15 25 -5 c20 -5 18 -3 -7 9 -17 8 -36 23 -42 32 -8 14
-11 15 -11 3 0 -9 -6 -6 -16 10 -9 15 -13 18 -9 6 5 -17 4 -17 -12 -5 -10 8
-26 21 -36 31 -14 12 -26 14 -48 8 -18 -5 -29 -5 -29 1 0 6 -4 7 -10 4 -5 -3
-21 2 -35 11 -14 9 -25 12 -25 7 0 -11 -36 -11 -46 0 -4 4 -13 2 -21 -4 -7 -6
-13 -7 -13 -2 0 5 -7 10 -15 10 -8 0 -12 -3 -10 -6 2 -4 -12 -11 -31 -17 -24
-8 -34 -8 -34 0 0 8 -3 8 -8 0 -4 -7 -16 -14 -27 -16 -11 -2 -19 -10 -17 -17
2 -9 -3 -9 -18 -1 -16 8 -20 8 -18 -2 2 -7 -5 -12 -14 -12 -10 1 -18 -5 -18
-14 0 -8 -3 -12 -7 -9 -3 4 -12 -1 -20 -11 -8 -9 -12 -12 -9 -5 4 6 1 15 -5
19 -8 4 -9 3 -5 -4 4 -7 2 -12 -4 -12 -6 0 -8 -4 -5 -10 3 -5 1 -10 -5 -10 -6
0 -8 -5 -4 -12 5 -8 0 -7 -11 2 -10 8 -16 11 -13 5 3 -5 -8 -23 -25 -40 -17
-16 -23 -20 -13 -8 12 14 14 23 6 28 -6 4 -9 1 -8 -7 2 -7 -3 -12 -10 -10 -8
1 -11 -1 -9 -5 3 -5 1 -18 -4 -30 -5 -15 -14 -21 -29 -18 -11 2 -20 0 -20 -6
0 -5 5 -9 11 -9 5 0 8 -4 4 -10 -3 -5 -12 -7 -20 -4 -10 4 -13 0 -10 -15 3
-19 1 -20 -17 -10 -12 7 -18 7 -14 1 3 -6 3 -12 -1 -15 -5 -2 -2 -2 5 0 7 1
10 -2 7 -7 -3 -6 -12 -10 -18 -10 -7 0 -18 -9 -25 -21 -12 -19 -21 -20 -142
-17 -72 2 -130 -1 -130 -6 0 -5 -6 -3 -14 3 -8 7 -16 8 -19 4 -3 -4 -68 -6
-146 -3 -78 3 -141 1 -141 -3 0 -4 -9 -3 -20 3 -11 6 -20 7 -20 3 0 -4 -5 -1
-10 7 -9 13 -10 13 -10 0 -1 -12 -3 -11 -11 3 -6 9 -15 14 -21 11 -7 -4 -8 -2
-4 5 4 6 12 9 17 6 5 -4 9 -1 9 6 0 6 -8 9 -20 6 -11 -3 -18 -1 -15 4 3 5 1
18 -5 29 -6 12 -13 31 -15 42 -3 11 -7 23 -11 27 -4 3 -4 -2 -1 -12 4 -11 3
-16 -3 -12 -6 3 -10 14 -10 24 0 9 -7 26 -16 37 -8 10 -13 13 -9 7 3 -7 1 -13
-5 -13 -6 0 -10 10 -8 23 2 18 -1 22 -22 19 -21 -2 -22 -1 -10 8 12 10 12 11
-6 7 -13 -3 -21 1 -21 9 0 7 5 10 10 7 6 -4 7 -1 3 6 -5 7 -14 10 -22 7 -14
-5 -47 32 -39 45 3 4 -4 5 -15 2 -14 -4 -20 0 -20 11 0 9 -6 13 -14 10 -8 -3
-17 0 -21 5 -3 6 -11 9 -16 6 -5 -4 -9 -1 -9 4 0 6 -4 11 -10 11 -5 0 -7 -8
-3 -17 5 -14 1 -12 -14 4 -11 13 -22 21 -24 18z m-166 -40 c-3 -9 -8 -14 -10
-11 -3 3 -2 9 2 15 9 16 15 13 8 -4z m1908 -22 c13 -16 12 -17 -3 -4 -10 7
-18 15 -18 17 0 8 8 3 21 -13z m-1957 -29 c-7 -3 -10 -15 -7 -27 4 -18 3 -19
-6 -7 -6 8 -11 11 -11 7 0 -5 -5 -5 -10 -2 -15 9 7 35 29 34 9 0 11 -3 5 -5z
m459 -69 c-3 -9 -8 -14 -10 -11 -3 3 -2 9 2 15 9 16 15 13 8 -4z m-826 -150
c0 -8 -4 -12 -9 -9 -5 3 -6 10 -3 15 9 13 12 11 12 -6z m3260 -1730 c0 -8 -4
-12 -9 -9 -5 3 -6 10 -3 15 9 13 12 11 12 -6z m458 -445 c-3 -5 -12 -10 -18
-10 -7 0 -6 4 3 10 19 12 23 12 15 0z m488 -844 c-10 -13 -20 -22 -22 -20 -4
4 29 44 36 44 2 0 -4 -11 -14 -24z m-68 -66 c-3 -5 -12 -10 -18 -10 -7 0 -6 4
3 10 19 12 23 12 15 0z m1205 -833 c0 -2 -12 -14 -27 -28 l-28 -24 24 28 c23
25 31 32 31 24z m-286 -272 c-4 -8 -11 -12 -16 -9 -6 4 -5 10 3 15 19 12 19
11 13 -6z m-6390 -213 c3 -5 -1 -9 -9 -9 -8 0 -12 4 -9 9 3 4 7 8 9 8 2 0 6
-4 9 -8z m7060 -380 c3 -5 -1 -9 -9 -9 -8 0 -12 4 -9 9 3 4 7 8 9 8 2 0 6 -4
9 -8z m-279 -1060 c-3 -3 -11 0 -18 7 -9 10 -8 11 6 5 10 -3 15 -9 12 -12z
m-172 -192 c-10 -11 -19 -20 -21 -20 -1 0 2 9 8 20 6 11 15 20 20 20 6 0 2 -9
-7 -20z m-333 -304 c0 -3 -4 -8 -10 -11 -5 -3 -10 -1 -10 4 0 6 5 11 10 11 6
0 10 -2 10 -4z m-6039 -123 c13 -16 12 -17 -3 -4 -10 7 -18 15 -18 17 0 8 8 3
21 -13z m4030 -266 c-10 -9 -11 -8 -5 6 3 10 9 15 12 12 3 -3 0 -11 -7 -18z
m-3541 -17 c0 -5 -2 -10 -4 -10 -3 0 -8 5 -11 10 -3 6 -1 10 4 10 6 0 11 -4
11 -10z"/>
<path d="M4066 9018 c3 -5 10 -6 15 -3 13 9 11 12 -6 12 -8 0 -12 -4 -9 -9z"/>
<path d="M5758 8993 c7 -3 16 -2 19 1 4 3 -2 6 -13 5 -11 0 -14 -3 -6 -6z"/>
<path d="M5876 8881 c-3 -5 1 -11 9 -14 9 -4 12 -1 8 9 -6 16 -10 17 -17 5z"/>
<path d="M3296 8288 c3 -5 10 -6 15 -3 13 9 11 12 -6 12 -8 0 -12 -4 -9 -9z"/>
<path d="M6115 8270 c3 -5 8 -10 11 -10 2 0 4 5 4 10 0 6 -5 10 -11 10 -5 0
-7 -4 -4 -10z"/>
<path d="M3140 7541 c0 -5 7 -12 16 -15 14 -5 15 -4 4 9 -14 17 -20 19 -20 6z"/>
<path d="M3415 7149 c-4 -6 -5 -12 -2 -15 2 -3 7 2 10 11 7 17 1 20 -8 4z"/>
<path d="M7216 6453 c-6 -14 -5 -15 5 -6 7 7 10 15 7 18 -3 3 -9 -2 -12 -12z"/>
<path d="M7346 6326 c3 -8 13 -17 22 -21 13 -5 13 -2 -3 15 -21 24 -26 25 -19
6z"/>
<path d="M3030 6196 c0 -2 7 -7 16 -10 8 -3 12 -2 9 4 -6 10 -25 14 -25 6z"/>
<path d="M7481 5724 c0 -11 3 -14 6 -6 3 7 2 16 -1 19 -3 4 -6 -2 -5 -13z"/>
<path d="M7766 5728 c3 -5 10 -6 15 -3 13 9 11 12 -6 12 -8 0 -12 -4 -9 -9z"/>
<path d="M1290 4916 c0 -2 8 -10 18 -17 15 -13 16 -12 3 4 -13 16 -21 21 -21
13z"/>
<path d="M1411 4824 c0 -11 3 -14 6 -6 3 7 2 16 -1 19 -3 4 -6 -2 -5 -13z"/>
<path d="M8436 4672 c-3 -5 1 -9 9 -9 8 0 12 4 9 9 -3 4 -7 8 -9 8 -2 0 -6 -4
-9 -8z"/>
<path d="M1730 4566 c0 -2 8 -10 18 -17 15 -13 16 -12 3 4 -13 16 -21 21 -21
13z"/>
<path d="M2000 4326 c0 -2 7 -7 16 -10 8 -3 12 -2 9 4 -6 10 -25 14 -25 6z"/>
<path d="M7996 4252 c-3 -5 1 -9 9 -9 8 0 12 4 9 9 -3 4 -7 8 -9 8 -2 0 -6 -4
-9 -8z"/>
<path d="M1366 3993 c-6 -14 -5 -15 5 -6 7 7 10 15 7 18 -3 3 -9 -2 -12 -12z"/>
<path d="M1363 3035 c0 -8 4 -12 9 -9 5 3 6 10 3 15 -9 13 -12 11 -12 -6z"/>
<path d="M1500 2860 c-9 -6 -10 -10 -3 -10 6 0 15 5 18 10 8 12 4 12 -15 0z"/>
<path d="M1970 2456 c0 -2 7 -7 16 -10 8 -3 12 -2 9 4 -6 10 -25 14 -25 6z"/>
<path d="M2398 2203 c7 -3 16 -2 19 1 4 3 -2 6 -13 5 -11 0 -14 -3 -6 -6z"/>
<path d="M7358 1793 c7 -3 16 -2 19 1 4 3 -2 6 -13 5 -11 0 -14 -3 -6 -6z"/>
<path d="M8421 1476 c-9 -11 -9 -16 1 -22 7 -4 10 -4 6 1 -4 4 -3 14 3 22 6 7
9 13 6 13 -2 0 -10 -6 -16 -14z"/>
</g>
</svg>
